<svg width="725" height="186" viewBox="0 0 725 186" fill="none" xmlns="http://www.w3.org/2000/svg">
<path d="M50.6914 144.953C35.6523 144.953 23.4453 140.233 14.0703 130.793C4.76042 121.288 0.105469 108.658 0.105469 92.9023V89.9727C0.105469 79.4258 2.1237 70.0182 6.16016 61.75C10.2617 53.4167 15.9909 46.9388 23.3477 42.3164C30.7044 37.694 38.9076 35.3828 47.957 35.3828C62.3451 35.3828 73.4453 39.9727 81.2578 49.1523C89.1354 58.332 93.0742 71.3203 93.0742 88.1172V97.6875H24.0312C24.7474 106.411 27.6445 113.312 32.7227 118.391C37.8659 123.469 44.3112 126.008 52.0586 126.008C62.931 126.008 71.7852 121.613 78.6211 112.824L91.4141 125.031C87.1823 131.346 81.5182 136.262 74.4219 139.777C67.3906 143.228 59.4805 144.953 50.6914 144.953ZM47.8594 54.4258C41.349 54.4258 36.0755 56.7044 32.0391 61.2617C28.0677 65.819 25.5286 72.1667 24.4219 80.3047H69.6367V78.5469C69.1159 70.6042 67 64.6146 63.2891 60.5781C59.5781 56.4766 54.4349 54.4258 47.8594 54.4258ZM226.668 143H201.961L138.582 42.1211V143H113.875V0.8125H138.582L202.156 102.082V0.8125H226.668V143ZM290.535 109.016L312.02 37.3359H337.312L295.32 159.016C288.875 176.789 277.938 185.676 262.508 185.676C259.057 185.676 255.249 185.09 251.082 183.918V165.559L255.574 165.852C261.564 165.852 266.056 164.745 269.051 162.531C272.111 160.383 274.52 156.737 276.277 151.594L279.695 142.512L242.586 37.3359H268.172L290.535 109.016ZM345.516 89.3867C345.516 72.9805 349.357 59.8945 357.039 50.1289C364.786 40.2982 375.04 35.3828 387.801 35.3828C399.845 35.3828 409.318 39.582 416.219 47.9805L417.293 37.3359H438.68V139.777C438.68 153.645 434.35 164.582 425.691 172.59C417.098 180.598 405.477 184.602 390.828 184.602C383.081 184.602 375.496 182.974 368.074 179.719C360.717 176.529 355.118 172.329 351.277 167.121L362.508 152.863C369.799 161.522 378.784 165.852 389.461 165.852C397.339 165.852 403.556 163.703 408.113 159.406C412.671 155.174 414.949 148.924 414.949 140.656V133.527C408.113 141.145 398.999 144.953 387.605 144.953C375.236 144.953 365.112 140.038 357.234 130.207C349.422 120.376 345.516 106.77 345.516 89.3867ZM369.148 91.4375C369.148 102.049 371.297 110.415 375.594 116.535C379.956 122.59 385.978 125.617 393.66 125.617C403.23 125.617 410.327 121.516 414.949 113.312V66.8281C410.457 58.8203 403.426 54.8164 393.855 54.8164C386.043 54.8164 379.956 57.9089 375.594 64.0938C371.297 70.2786 369.148 79.3932 369.148 91.4375ZM485.457 37.3359L486.141 48.3711C493.562 39.7122 503.719 35.3828 516.609 35.3828C530.737 35.3828 540.405 40.7865 545.613 51.5938C553.296 40.7865 564.103 35.3828 578.035 35.3828C589.689 35.3828 598.348 38.6055 604.012 45.0508C609.741 51.4961 612.671 61.0013 612.801 73.5664V143H589.07V74.25C589.07 67.5443 587.605 62.6289 584.676 59.5039C581.746 56.3789 576.896 54.8164 570.125 54.8164C564.721 54.8164 560.294 56.2812 556.844 59.2109C553.458 62.0755 551.082 65.8516 549.715 70.5391L549.812 143H526.082V73.4688C525.757 61.0339 519.409 54.8164 507.039 54.8164C497.534 54.8164 490.796 58.6901 486.824 66.4375V143H463.094V37.3359H485.457ZM700.301 143C699.259 140.982 698.348 137.694 697.566 133.137C690.014 141.014 680.77 144.953 669.832 144.953C659.22 144.953 650.561 141.926 643.855 135.871C637.15 129.816 633.797 122.329 633.797 113.41C633.797 102.147 637.964 93.5208 646.297 87.5312C654.695 81.4766 666.674 78.4492 682.234 78.4492H696.785V71.5156C696.785 66.0469 695.255 61.6849 692.195 58.4297C689.135 55.1094 684.48 53.4492 678.23 53.4492C672.827 53.4492 668.4 54.8164 664.949 57.5508C661.499 60.2201 659.773 63.638 659.773 67.8047H636.043C636.043 62.0104 637.964 56.6068 641.805 51.5938C645.646 46.5156 650.854 42.5443 657.43 39.6797C664.07 36.8151 671.46 35.3828 679.598 35.3828C691.967 35.3828 701.831 38.5078 709.188 44.7578C716.544 50.9427 720.32 59.6667 720.516 70.9297V118.586C720.516 128.091 721.85 135.676 724.52 141.34V143H700.301ZM674.227 125.91C678.914 125.91 683.309 124.771 687.41 122.492C691.577 120.214 694.702 117.154 696.785 113.312V93.3906H683.992C675.203 93.3906 668.595 94.9206 664.168 97.9805C659.741 101.04 657.527 105.37 657.527 110.969C657.527 115.526 659.025 119.172 662.02 121.906C665.079 124.576 669.148 125.91 674.227 125.91Z" fill="#008080"/>
</svg>
